<?xml version="1.0" encoding="UTF-8" standalone="no"?>
<svg width="69px" height="61px" viewBox="0 0 69 61" version="1.1" xmlns="http://www.w3.org/2000/svg" xmlns:xlink="http://www.w3.org/1999/xlink" xmlns:sketch="http://www.bohemiancoding.com/sketch/ns">
    <!-- Generator: Sketch 3.2.2 (9983) - http://www.bohemiancoding.com/sketch -->
    <title>Layer 1 + A + L</title>
    <desc>Created with Sketch.</desc>
    <defs></defs>
    <g id="Page-1" stroke="none" stroke-width="1" fill="none" fill-rule="evenodd" sketch:type="MSPage">
        <g id="Layer-1-+-A-+-L" sketch:type="MSLayerGroup" transform="translate(0.000000, -5.000000)">
            <g id="Layer-1" transform="translate(0.000000, 4.585455)" fill="#FFC156" sketch:type="MSShapeGroup">
                <g id="layer1">
                    <g>
                        <g id="svg_3" transform="translate(0.019278, 0.085204)">
                            <g id="svg_4" transform="translate(0.068936, 0.067216)">
                                <g id="svg_5" transform="translate(27.652680, 58.776801) rotate(-57.644208) translate(-27.652680, -58.776801) translate(24.566798, 54.587520)">
                                    <path d="M6.01517026,8.33439852 C6.8491884,2.9248269 3.52308999,1.24066631 0.0328936229,0.00868758651 C0.612249868,4.34153621 1.77720566,8.54486616 6.01517026,8.33439852 L6.01517026,8.33439852 Z" id="svg_6"></path>
                                    <path d="M5.96515509,8.2388371 L0.0998077255,0.141094781 C0.81209786,4.74798685 1.94444173,8.43852565 5.96515509,8.2388371 L5.96515509,8.2388371 Z" id="svg_7"></path>
                                </g>
                                <g id="svg_8" transform="translate(27.835308, 51.100090) rotate(-4.290487) translate(-27.835308, -51.100090) translate(24.749436, 46.910780)">
                                    <path d="M6.00100033,8.34554063 C6.83501579,2.93593481 3.50892648,1.25176263 0.0187429425,0.0197753742 C0.59809405,4.35265282 1.7630461,8.55600971 6.00100033,8.34554063 L6.00100033,8.34554063 Z" id="svg_9"></path>
                                    <path d="M5.95098532,8.24997861 L0.0856535561,0.15218361 C0.797944673,4.75910435 1.93028163,8.44966853 5.95098532,8.24997861 L5.95098532,8.24997861 Z" id="svg_10"></path>
                                </g>
                                <g id="svg_11" transform="translate(20.962584, 55.895269) rotate(-52.796431) translate(-20.962584, -55.895269) translate(17.876699, 51.705976)">
                                    <path d="M6.03581266,8.34810985 C6.86983164,2.93852287 3.5437299,1.25435749 0.0535300157,0.0223752741 C0.632886843,4.35523621 1.79784381,8.55857809 6.03581266,8.34810985 L6.03581266,8.34810985 Z" id="svg_12"></path>
                                    <path d="M5.98580066,8.25254417 L0.120444132,0.154780881 C0.832734982,4.76168603 1.96507999,8.45223335 5.98580066,8.25254417 L5.98580066,8.25254417 Z" id="svg_13"></path>
                                </g>
                                <g id="svg_14" transform="translate(21.039722, 47.045029) rotate(26.589551) translate(-21.039722, -47.045029) translate(17.953838, 42.823010)">
                                    <path d="M6.02771948,8.37354183 C6.86173835,2.9639605 3.53563702,1.27979625 0.045437585,0.0478147875 C0.624792729,4.38067282 1.78974955,8.58400993 6.02771948,8.37354183 L6.02771948,8.37354183 Z" id="svg_15"></path>
                                    <path d="M5.97770426,8.27798021 L0.112348473,0.180220306 C0.824642507,4.78712237 1.95698576,8.47766919 5.97770426,8.27798021 L5.97770426,8.27798021 Z" id="svg_16"></path>
                                </g>
                                <g id="svg_17" transform="translate(14.957828, 51.597747) rotate(-36.843340) translate(-14.957828, -51.597747) translate(11.871945, 47.408453)">
                                    <path d="M5.99903162,8.36581404 C6.83305353,2.95622822 3.50694989,1.27206257 0.016751465,0.0400800825 C0.596104777,4.37294172 1.76106126,8.57628231 5.99903162,8.36581404 L5.99903162,8.36581404 Z" id="svg_18"></path>
                                    <path d="M5.94901964,8.27025234 L0.0836622796,0.17248774 C0.795956108,4.77939161 1.92829737,8.46994155 5.94901964,8.27025234 L5.94901964,8.27025234 Z" id="svg_19"></path>
                                </g>
                                <g id="svg_20" transform="translate(16.176609, 42.705338) rotate(45.165962) translate(-16.176609, -42.705338) translate(13.090726, 38.516043)">
                                    <path d="M6.0333574,8.34345195 C6.86737601,2.93386407 3.54127573,1.24970177 0.0510781905,0.0177188194 C0.630434763,4.3505781 1.79539121,8.5539203 6.0333574,8.34345195 L6.0333574,8.34345195 Z" id="svg_21"></path>
                                    <path d="M5.98334376,8.2478942 L0.11798895,0.150124498 C0.830282761,4.75702815 1.96262727,8.44758342 5.98334376,8.2478942 L5.98334376,8.2478942 Z" id="svg_22"></path>
                                </g>
                                <g id="svg_23" transform="translate(9.831267, 46.163316) rotate(-25.879028) translate(-9.831267, -46.163316) translate(6.745384, 41.974024)">
                                    <path d="M5.99879362,8.34580232 C6.83281522,2.93621886 3.50671446,1.25205395 0.0165172538,0.0200720085 C0.595873629,4.35293174 1.76082968,8.55627049 5.99879362,8.34580232 L5.99879362,8.34580232 Z" id="svg_24"></path>
                                    <path d="M5.94878166,8.25024065 L0.0834297077,0.152477579 C0.795721612,4.75938145 1.92806579,8.44992971 5.94878166,8.25024065 L5.94878166,8.25024065 Z" id="svg_25"></path>
                                </g>
                                <g id="svg_26" transform="translate(12.312475, 37.641047) rotate(55.854674) translate(-12.312475, -37.641047) translate(9.226592, 33.451747)">
                                    <path d="M6.02502054,8.32808807 C6.8590391,2.91849387 3.53293904,1.23432562 0.0427400762,0.0023412295 C0.622096609,4.33520956 1.78705298,8.53855666 6.02502054,8.32808807 L6.02502054,8.32808807 Z" id="svg_27"></path>
                                    <path d="M5.9750053,8.23252621 L0.109650885,0.134751055 C0.821944647,4.74166008 1.95428908,8.43221567 5.9750053,8.23252621 L5.9750053,8.23252621 Z" id="svg_28"></path>
                                </g>
                                <g id="svg_29" transform="translate(5.879071, 39.739024) rotate(-14.978217) translate(-5.879071, -39.739024) translate(2.793184, 35.549723)">
                                    <path d="M5.99165885,8.36606122 C6.82567825,2.95646337 3.49957481,1.27229461 0.00937315245,0.0403099135 C0.588728665,4.37317955 1.75368622,8.57652987 5.99165885,8.36606122 L5.99165885,8.36606122 Z" id="svg_30"></path>
                                    <path d="M5.9416436,8.2704973 L0.0762840827,0.17271775 C0.78857857,4.77963013 1.92092254,8.47018885 5.9416436,8.2704973 L5.9416436,8.2704973 Z" id="svg_31"></path>
                                </g>
                                <g id="svg_32" transform="translate(10.434530, 29.464344) rotate(45.788598) translate(-10.434530, -29.464344) translate(6.516796, 24.162270)">
                                    <g id="svg_33" transform="translate(3.912740, 5.328036) rotate(17.174550) translate(-3.912740, -5.328036) translate(0.954557, 0.923413)">
                                        <path d="M5.75013074,8.7430165 C6.54963583,3.09946945 3.3611769,1.34246885 0.0154106415,0.0572038852 C0.570792164,4.57745493 1.68754015,8.96258739 5.75013074,8.7430165 L5.75013074,8.7430165 Z" id="svg_34"></path>
                                        <path d="M5.70218677,8.64332598 L0.0795540812,0.195335974 C0.762370012,5.00148352 1.84785566,8.85165156 5.70218677,8.64332598 L5.70218677,8.64332598 Z" id="svg_35"></path>
                                    </g>
                                </g>
                                <g id="svg_36" transform="translate(4.394160, 33.002378) rotate(-8.158475) translate(-4.394160, -33.002378) translate(1.308266, 28.780361)">
                                    <path d="M5.99574061,8.37974032 C6.82976188,2.97016031 3.50364938,1.28599549 0.0134415081,0.0540143342 C0.592796655,4.38687235 1.75775682,8.59020836 5.99574061,8.37974032 L5.99574061,8.37974032 Z" id="svg_37"></path>
                                    <path d="M5.9457252,8.28417872 L0.0803525347,0.186421784 C0.792648618,4.79332174 1.92499347,8.48386765 5.9457252,8.28417872 L5.9457252,8.28417872 Z" id="svg_38"></path>
                                </g>
                                <g id="svg_39" transform="translate(9.712420, 21.258571) rotate(75.340940) translate(-9.712420, -21.258571) translate(6.653354, 17.036556)">
                                    <path d="M5.98830877,8.38986873 C6.8223316,2.98029095 3.4962145,1.2961278 0.00599764649,0.0641471502 C0.585357148,4.39700234 1.75031869,8.60033668 5.98830877,8.38986873 L5.98830877,8.38986873 Z" id="svg_40"></path>
                                    <path d="M5.93829327,8.29430716 L0.0729087979,0.196552581 C0.785206211,4.80345162 1.91755564,8.49399601 5.93829327,8.29430716 L5.93829327,8.29430716 Z" id="svg_41"></path>
                                </g>
                                <g id="svg_42" transform="translate(3.907850, 25.209665) rotate(14.217956) translate(-3.907850, -25.209665) translate(0.821968, 20.987641)">
                                    <path d="M6.00133434,8.37891289 C6.83535251,2.96932412 3.50925072,1.28515756 0.0190566364,0.0531744024 C0.598411292,4.38603839 1.76336712,8.58938127 6.00133434,8.37891289 L6.00133434,8.37891289 Z" id="svg_43"></path>
                                    <path d="M5.95131911,8.28335113 L0.0859674139,0.185580102 C0.798260847,4.7924885 1.93060315,8.48304039 5.95131911,8.28335113 L5.95131911,8.28335113 Z" id="svg_44"></path>
                                </g>
                                <g id="svg_45" transform="translate(12.455248, 12.128250) rotate(90.670668) translate(-12.455248, -12.128250) translate(9.396204, 7.938943)">
                                    <path d="M5.98726829,8.35132718 C6.82128541,2.94171733 3.49519029,1.25755007 0.00499858589,0.025563546 C0.584354118,4.35843561 1.74930848,8.56179615 5.98726829,8.35132718 L5.98726829,8.35132718 Z" id="svg_46"></path>
                                    <path d="M5.93725393,8.25576116 L0.0719108888,0.157969615 C0.784201758,4.76488685 1.91654429,8.45545104 5.93725393,8.25576116 L5.93725393,8.25576116 Z" id="svg_47"></path>
                                </g>
                                <g id="svg_48" transform="translate(5.219039, 16.220228) rotate(34.689090) translate(-5.219039, -16.220228) translate(2.159987, 12.030936)">
                                    <path d="M5.98453635,8.3593669 C6.81855557,2.94978192 3.49245287,1.26561685 0.00225199903,0.0336347778 C0.581607381,4.36649494 1.74656468,8.5698351 5.98453635,8.3593669 L5.98453635,8.3593669 Z" id="svg_49"></path>
                                    <path d="M5.93452106,8.26380523 L0.0691628606,0.166042325 C0.781457188,4.77294463 1.91380091,8.46349431 5.93452106,8.26380523 L5.93452106,8.26380523 Z" id="svg_50"></path>
                                </g>
                                <g id="svg_51" transform="translate(14.014141, 4.073055) rotate(84.501867) translate(-14.014141, -4.073055) translate(10.928252, -0.116237)">
                                    <path d="M6.02708813,8.33114096 C6.86110814,2.92155679 3.53500228,1.23739166 0.0447980898,0.00540955432 C0.624155633,4.33826986 1.78911404,8.54160917 6.02708813,8.33114096 L6.02708813,8.33114096 Z" id="svg_52"></path>
                                    <path d="M5.97707446,8.23557928 L0.111710679,0.137815142 C0.82400402,4.74471962 1.95635048,8.43526837 5.97707446,8.23557928 L5.97707446,8.23557928 Z" id="svg_53"></path>
                                </g>
                                <g id="svg_54" transform="translate(8.183500, 7.368602) rotate(46.404553) translate(-8.183500, -7.368602) translate(5.097613, 3.179310)">
                                    <path d="M6.02390993,8.34558353 C6.85792947,2.93599946 3.53182385,1.25183436 0.041623197,0.0198522694 C0.620977146,4.3527125 1.7859349,8.55605173 6.02390993,8.34558353 L6.02390993,8.34558353 Z" id="svg_55"></path>
                                    <path d="M5.97389462,8.25002185 L0.108534085,0.152257854 C0.820828696,4.75916226 1.9531712,8.44971094 5.97389462,8.25002185 L5.97389462,8.25002185 Z" id="svg_56"></path>
                                </g>
                            </g>
                            <g id="svg_57" transform="translate(53.182976, 32.162938) scale(-1, 1) translate(-53.182976, -32.162938) translate(37.046813, 0.067216)">
                                <g id="svg_58" transform="translate(27.621508, 58.788677) rotate(-57.644208) translate(-27.621508, -58.788677) translate(24.535626, 54.599396)">
                                    <path d="M6.02775185,8.33636218 C6.86176672,2.92679259 3.53567159,1.242632 0.0454752197,0.0106532102 C0.624831465,4.34350184 1.78978726,8.54682982 6.02775185,8.33636218 L6.02775185,8.33636218 Z" id="svg_59"></path>
                                    <path d="M5.97773996,8.24080076 L0.112389322,0.143062434 C0.824676183,4.74995051 1.95702005,8.44048931 5.97773996,8.24080076 L5.97773996,8.24080076 Z" id="svg_60"></path>
                                </g>
                                <g id="svg_61" transform="translate(27.780509, 51.091891) rotate(-4.290487) translate(-27.780509, -51.091891) translate(24.694637, 46.869853)">
                                    <path d="M6.03090163,8.38940833 C6.86491709,2.97980153 3.53882611,1.29562935 0.0486442371,0.0636420933 C0.627995345,4.39652052 1.79294739,8.59987741 6.03090163,8.38940833 L6.03090163,8.38940833 Z" id="svg_62"></path>
                                    <path d="M5.98088657,8.29384631 L0.115554797,0.196050329 C0.827845914,4.80297205 1.96018287,8.4935363 5.98088657,8.29384631 L5.98088657,8.29384631 Z" id="svg_63"></path>
                                </g>
                                <g id="svg_64" transform="translate(20.971110, 55.861692) rotate(-52.796431) translate(-20.971110, -55.861692) translate(17.885225, 51.672399)">
                                    <path d="M5.9955505,8.33841544 C6.82957275,2.92883048 3.50346774,1.24466511 0.0132678566,0.0126828218 C0.592624684,4.34554375 1.75758165,8.54888367 5.9955505,8.33841544 L5.9955505,8.33841544 Z" id="svg_65"></path>
                                    <path d="M5.9455385,8.24285374 L0.0801819728,0.145088428 C0.792476097,4.75199358 1.92482111,8.44254286 5.9455385,8.24285374 L5.9455385,8.24285374 Z" id="svg_66"></path>
                                </g>
                                <g id="svg_67" transform="translate(21.020752, 47.035427) rotate(26.589551) translate(-21.020752, -47.035427) translate(17.934867, 42.846137)">
                                    <path d="M6.02645512,8.35163002 C6.860474,2.94204868 3.53437267,1.25788443 0.044173231,0.0259029685 C0.623526711,4.358761 1.78848353,8.56209811 6.02645512,8.35163002 L6.02645512,8.35163002 Z" id="svg_68"></path>
                                    <path d="M5.97643986,8.25606839 L0.111084065,0.158308487 C0.8233781,4.76521056 1.95571969,8.45575737 5.97643986,8.25606839 L5.97643986,8.25606839 Z" id="svg_69"></path>
                                </g>
                                <g id="svg_70" transform="translate(14.926999, 51.638358) rotate(-36.843340) translate(-14.926999, -51.638358) translate(11.841116, 47.416336)">
                                    <path d="M6.02909189,8.37139536 C6.86310724,2.96181051 3.53700361,1.27764487 0.0468117293,0.0456623813 C0.626161768,4.37852401 1.79111825,8.58186363 6.02909189,8.37139536 L6.02909189,8.37139536 Z" id="svg_71"></path>
                                    <path d="M5.97907336,8.27583365 L0.11371927,0.178072002 C0.826013098,4.7849739 1.95835764,8.4755228 5.97907336,8.27583365 L5.97907336,8.27583365 Z" id="svg_72"></path>
                                </g>
                                <g id="svg_73" transform="translate(16.171744, 42.750088) rotate(45.165962) translate(-16.171744, -42.750088) translate(13.085861, 38.560793)">
                                    <path d="M5.99602449,8.32700563 C6.8300431,2.91741775 3.50394282,1.23325146 0.0137444722,0.00126850542 C0.593099435,4.33413178 1.75805589,8.53747397 5.99602449,8.32700563 L5.99602449,8.32700563 Z" id="svg_74"></path>
                                    <path d="M5.9460109,8.23144388 L0.0806569489,0.133676213 C0.792949097,4.74058183 1.92529366,8.43113317 5.9460109,8.23144388 L5.9460109,8.23144388 Z" id="svg_75"></path>
                                </g>
                                <g id="svg_76" transform="translate(9.809108, 46.158538) rotate(-25.879028) translate(-9.809108, -46.158538) translate(6.723225, 41.969247)">
                                    <path d="M5.99587502,8.34974156 C6.82989335,2.94015712 3.5037942,1.25599221 0.0135970428,0.0240102699 C0.592953418,4.35687 1.75790947,8.56020974 5.99587502,8.34974156 L5.99587502,8.34974156 Z" id="svg_77"></path>
                                    <path d="M5.94585979,8.2541799 L0.0805078331,0.156417804 C0.792801402,4.76331965 1.92514225,8.45386896 5.94585979,8.2541799 L5.94585979,8.2541799 Z" id="svg_78"></path>
                                </g>
                                <g id="svg_79" transform="translate(12.312431, 37.649758) rotate(55.854674) translate(-12.312431, -37.649758) translate(9.226548, 33.427730)">
                                    <path d="M6.00393875,8.37871157 C6.83795731,2.96911737 3.51185645,1.28494912 0.0216591451,0.0529647289 C0.601014068,4.38583306 1.76597044,8.58918016 6.00393875,8.37871157 L6.00393875,8.37871157 Z" id="svg_80"></path>
                                    <path d="M5.95392431,8.28314971 L0.0885707586,0.185372591 C0.800863716,4.79228358 1.93320649,8.48283923 5.95392431,8.28314971 L5.95392431,8.28314971 Z" id="svg_81"></path>
                                </g>
                                <g id="svg_82" transform="translate(5.863144, 39.758438) rotate(-14.978217) translate(-5.863144, -39.758438) translate(2.777257, 35.569137)">
                                    <path d="M5.99168343,8.34491847 C6.82570283,2.93532167 3.49959939,1.25115291 0.0093977322,0.0191681472 C0.588751581,4.35203778 1.75370914,8.55538712 5.99168343,8.34491847 L5.99168343,8.34491847 Z" id="svg_83"></path>
                                    <path d="M5.94166813,8.24935658 L0.0763086087,0.151575984 C0.788603096,4.75848836 1.92094541,8.4490461 5.94166813,8.24935658 L5.94166813,8.24935658 Z" id="svg_84"></path>
                                </g>
                                <g id="svg_85" transform="translate(10.384123, 29.512777) rotate(45.788598) translate(-10.384123, -29.512777) translate(6.466389, 24.243433)">
                                    <g id="svg_86" transform="translate(3.911764, 5.260618) rotate(17.174550) translate(-3.911764, -5.260618) translate(0.953581, 0.890141)">
                                        <path d="M5.74291643,8.6874006 C6.54242151,3.04385355 3.35396181,1.28684878 0.00819709939,0.00158382015 C0.563577078,4.52183903 1.68032507,8.90697149 5.74291643,8.6874006 L5.74291643,8.6874006 Z" id="svg_87"></path>
                                        <path d="M5.69497251,8.58770591 L0.0723389957,0.139718026 C0.755156521,4.94586762 1.84064058,8.79603156 5.69497251,8.58770591 L5.69497251,8.58770591 Z" id="svg_88"></path>
                                    </g>
                                </g>
                                <g id="svg_89" transform="translate(4.358097, 33.022266) rotate(-8.158475) translate(-4.358097, -33.022266) translate(1.299038, 28.832977)">
                                    <path d="M5.98642475,8.32935666 C6.8204493,2.91977567 3.49433513,1.23561183 0.00412565179,0.00363067338 C0.583484073,4.33648765 1.74844424,8.5398247 5.98642475,8.32935666 L5.98642475,8.32935666 Z" id="svg_90"></path>
                                    <path d="M5.93641262,8.23379506 L0.071039952,0.136038123 C0.783336036,4.74293703 1.91568089,8.43348399 5.93641262,8.23379506 L5.93641262,8.23379506 Z" id="svg_91"></path>
                                </g>
                                <g id="svg_92" transform="translate(9.667398, 21.277019) rotate(75.340940) translate(-9.667398, -21.277019) translate(6.608333, 17.087731)">
                                    <path d="M5.98266485,8.32666044 C6.81668768,2.91708265 3.49056977,1.23291951 0.000354583243,0.000938858523 C0.579712475,4.33379405 1.74467482,8.53712839 5.98266485,8.32666044 L5.98266485,8.32666044 Z" id="svg_93"></path>
                                    <path d="M5.9326502,8.23109887 L0.0672665933,0.13334429 C0.779563201,4.74024333 1.91191177,8.43078772 5.9326502,8.23109887 L5.9326502,8.23109887 Z" id="svg_94"></path>
                                </g>
                                <g id="svg_95" transform="translate(3.873472, 25.194383) rotate(14.217956) translate(-3.873472, -25.194383) translate(0.814424, 20.972359)">
                                    <path d="M5.98732293,8.39049708 C6.8213411,2.98090831 3.49524258,1.29674175 0.00504608796,0.0647585903 C0.584402353,4.39762258 1.74935819,8.60096546 5.98732293,8.39049708 L5.98732293,8.39049708 Z" id="svg_96"></path>
                                    <path d="M5.93730771,8.29493532 L0.0719568655,0.19716632 C0.784250299,4.80407269 1.91659093,8.49462464 5.93730771,8.29493532 L5.93730771,8.29493532 Z" id="svg_97"></path>
                                </g>
                                <g id="svg_98" transform="translate(12.431757, 12.138777) rotate(90.670668) translate(-12.431757, -12.138777) translate(9.345879, 7.949470)">
                                    <path d="M6.00533689,8.35075986 C6.839354,2.94115602 3.51325888,1.25698876 0.0230676098,0.0250021788 C0.602421532,4.35787424 1.76737589,8.56122882 6.00533689,8.35075986 L6.00533689,8.35075986 Z" id="svg_99"></path>
                                    <path d="M5.95532258,8.25520182 L0.0899783028,0.15741224 C0.802270835,4.76432548 1.9346117,8.45489164 5.95532258,8.25520182 L5.95532258,8.25520182 Z" id="svg_100"></path>
                                </g>
                                <g id="svg_101" transform="translate(5.200161, 16.228266) rotate(34.689090) translate(-5.200161, -16.228266) translate(2.114275, 12.006245)">
                                    <path d="M6.00467645,8.3881944 C6.83869567,2.9786104 3.51259297,1.29444533 0.0223921005,0.0624632594 C0.601749093,4.39532343 1.76670639,8.5986626 6.00467645,8.3881944 L6.00467645,8.3881944 Z" id="svg_102"></path>
                                    <path d="M5.95466277,8.29263272 L0.089304572,0.194870872 C0.801597236,4.80177318 1.93394262,8.49232187 5.95466277,8.29263272 L5.95466277,8.29263272 Z" id="svg_103"></path>
                                </g>
                                <g id="svg_104" transform="translate(14.012331, 4.076514) rotate(84.501867) translate(-14.012331, -4.076514) translate(10.926442, -0.145507)">
                                    <path d="M6.0191202,8.38887589 C6.85314021,2.97929172 3.52703355,1.29512259 0.0368309688,0.0631404867 C0.616186902,4.39600478 1.78114531,8.59934409 6.0191202,8.38887589 L6.0191202,8.38887589 Z" id="svg_105"></path>
                                    <path d="M5.96910573,8.29331022 L0.103741948,0.195550067 C0.816036952,4.80245455 1.94838175,8.4929993 5.96910573,8.29331022 L5.96910573,8.29331022 Z" id="svg_106"></path>
                                </g>
                                <g id="svg_107" transform="translate(8.173649, 7.390407) rotate(46.404553) translate(-8.173649, -7.390407) translate(5.087762, 3.168386)">
                                    <path d="M6.00211074,8.37453684 C6.83613028,2.96495277 3.51002466,1.28078766 0.0198231486,0.0488055792 C0.599178761,4.38166581 1.76413652,8.585007 6.00211074,8.37453684 L6.00211074,8.37453684 Z" id="svg_108"></path>
                                    <path d="M5.95209543,8.27897516 L0.0867348954,0.181213194 C0.799028701,4.78811557 1.93137282,8.47866431 5.95209543,8.27897516 L5.95209543,8.27897516 Z" id="svg_109"></path>
                                </g>
                            </g>
                            <path d="M36.0062739,56.4996382 C36.0062739,57.3564485 35.4239093,58.0510305 34.7055262,58.0510305 C33.9871431,58.0510305 33.4047785,57.3564485 33.4047785,56.4996382 C33.4047785,55.6428279 33.9871431,54.948246 34.7055262,54.948246 C35.4239093,54.948246 36.0062739,55.6428279 36.0062739,56.4996382 L36.0062739,56.4996382 Z" id="svg_110"></path>
                        </g>
                    </g>
                </g>
            </g>
            <text id="A" sketch:type="MSTextLayer" transform="translate(25.120403, 22.115158) rotate(1.000000) translate(-25.120403, -22.115158) " font-family="Zapfino" font-size="16.5095541" font-style="italic" font-weight="normal" line-spacing="240" fill="#4A4A4A">
                <tspan x="15.929549" y="34.8265105">A</tspan>
            </text>
            <text id="L" sketch:type="MSTextLayer" transform="translate(41.564893, 18.623608) rotate(-12.000000) translate(-41.564893, -18.623608) " font-family="Zapfino" font-size="16.7323944" font-style="italic" font-weight="normal" fill="#4A4A4A">
                <tspan x="32.8986082" y="33.0926411">L</tspan>
            </text>
        </g>
    </g>
</svg>