<?xml version="1.0" encoding="UTF-8" standalone="no"?>
<svg width="35px" height="31px" viewBox="0 0 35 31" version="1.1" xmlns="http://www.w3.org/2000/svg" xmlns:xlink="http://www.w3.org/1999/xlink" xmlns:sketch="http://www.bohemiancoding.com/sketch/ns">
    <!-- Generator: Sketch 3.2.2 (9983) - http://www.bohemiancoding.com/sketch -->
    <title>Layer 1 + A + L</title>
    <desc>Created with Sketch.</desc>
    <defs></defs>
    <g id="Page-1" stroke="none" stroke-width="1" fill="none" fill-rule="evenodd" sketch:type="MSPage">
        <g id="Layer-1-+-A-+-L" sketch:type="MSLayerGroup" transform="translate(0.000000, -2.000000)">
            <g id="Layer-1" transform="translate(0.000000, 2.257455)" fill="#FFC156" sketch:type="MSShapeGroup">
                <g id="layer1">
                    <g>
                        <g id="svg_3" transform="translate(0.009639, 0.041947)">
                            <g id="svg_4" transform="translate(0.034468, 0.033091)">
                                <g id="svg_5" transform="translate(13.826340, 28.936271) rotate(-57.644208) translate(-13.826340, -28.936271) translate(12.283399, 26.873856)">
                                    <path d="M3.00758513,4.1030885 C3.4245942,1.43991478 1.761545,0.610789567 0.0164468115,0.00427696567 C0.306124934,2.13737167 0.88860283,4.20670334 3.00758513,4.1030885 L3.00758513,4.1030885 Z" id="svg_6"></path>
                                    <path d="M2.98257754,4.05604288 L0.0499038628,0.069462046 C0.40604893,2.33747045 0.972220865,4.15435109 2.98257754,4.05604288 L2.98257754,4.05604288 Z" id="svg_7"></path>
                                </g>
                                <g id="svg_8" transform="translate(13.917654, 25.156967) rotate(-4.290487) translate(-13.917654, -25.156967) translate(12.374718, 23.094538)">
                                    <path d="M3.00050017,4.10857385 C3.4175079,1.44538329 1.75446324,0.616252374 0.00937147125,0.00973556883 C0.299047025,2.14284447 0.881523048,4.21218939 3.00050017,4.10857385 L3.00050017,4.10857385 Z" id="svg_9"></path>
                                    <path d="M2.97549266,4.06152793 L0.0428267781,0.0749211619 C0.398972337,2.34294368 0.965140814,4.15983682 2.97549266,4.06152793 L2.97549266,4.06152793 Z" id="svg_10"></path>
                                </g>
                                <g id="svg_11" transform="translate(10.481292, 27.517671) rotate(-52.796431) translate(-10.481292, -27.517671) translate(8.938350, 25.455250)">
                                    <path d="M3.01790633,4.1098387 C3.43491582,1.44665741 1.77186495,0.617529844 0.0267650078,0.0110155196 C0.316443421,2.14411629 0.898921903,4.21345383 3.01790633,4.1098387 L3.01790633,4.1098387 Z" id="svg_12"></path>
                                    <path d="M2.99290033,4.06279097 L0.0602220659,0.0761998182 C0.416367491,2.34421466 0.982539995,4.1610995 2.99290033,4.06279097 L2.99290033,4.06279097 Z" id="svg_13"></path>
                                </g>
                                <g id="svg_14" transform="translate(10.519861, 23.160629) rotate(26.589551) translate(-10.519861, -23.160629) translate(8.976919, 21.082097)">
                                    <path d="M3.01385974,4.12235906 C3.43086918,1.45918055 1.76781851,0.630053538 0.0227187925,0.0235395877 C0.312396365,2.15663893 0.894874773,4.22597412 3.01385974,4.12235906 L3.01385974,4.12235906 Z" id="svg_15"></path>
                                    <path d="M2.98885213,4.07531333 L0.0561742364,0.0887238427 C0.412321254,2.35673717 0.978492881,4.17362175 2.98885213,4.07531333 L2.98885213,4.07531333 Z" id="svg_16"></path>
                                </g>
                                <g id="svg_17" transform="translate(7.478914, 25.401968) rotate(-36.843340) translate(-7.478914, -25.401968) translate(5.935972, 23.339546)">
                                    <path d="M2.99951581,4.11855461 C3.41652676,1.45537389 1.75347495,0.626246187 0.00837573248,0.0197317329 C0.298052389,2.15283284 0.880530628,4.22216975 2.99951581,4.11855461 L2.99951581,4.11855461 Z" id="svg_18"></path>
                                    <path d="M2.97450982,4.07150884 L0.0418311398,0.0849170411 C0.397978054,2.35293125 0.964148686,4.16981738 2.97450982,4.07150884 L2.97450982,4.07150884 Z" id="svg_19"></path>
                                </g>
                                <g id="svg_20" transform="translate(8.088305, 21.024166) rotate(45.165962) translate(-8.088305, -21.024166) translate(6.545363, 18.961744)">
                                    <path d="M3.0166787,4.10754558 C3.43368801,1.44436385 1.77063787,0.615237796 0.0255390952,0.0087231111 C0.315217382,2.14182307 0.897695607,4.21116076 3.0166787,4.10754558 L3.0166787,4.10754558 Z" id="svg_21"></path>
                                    <path d="M2.99167188,4.06050176 L0.0589944749,0.073907445 C0.415141381,2.34192155 0.981313636,4.1588103 2.99167188,4.06050176 L2.99167188,4.06050176 Z" id="svg_22"></path>
                                </g>
                                <g id="svg_23" transform="translate(4.915633, 22.726556) rotate(-25.879028) translate(-4.915633, -22.726556) translate(3.372692, 20.664135)">
                                    <path d="M2.99939681,4.10870268 C3.41640761,1.44552313 1.75335723,0.616395793 0.00825862689,0.0098816042 C0.297936814,2.14298178 0.880414842,4.21231778 2.99939681,4.10870268 L2.99939681,4.10870268 Z" id="svg_24"></path>
                                    <path d="M2.97439083,4.06165694 L0.0417148539,0.0750658848 C0.397860806,2.3430801 0.964032895,4.1599654 2.97439083,4.06165694 L2.97439083,4.06165694 Z" id="svg_25"></path>
                                </g>
                                <g id="svg_26" transform="translate(6.156238, 18.530977) rotate(55.854674) translate(-6.156238, -18.530977) translate(4.613296, 16.468552)">
                                    <path d="M3.01251027,4.09998182 C3.42951955,1.43679698 1.76646952,0.607667997 0.0213700381,0.00115260529 C0.311048305,2.13425702 0.893526491,4.20359712 3.01251027,4.09998182 L3.01251027,4.09998182 Z" id="svg_27"></path>
                                    <path d="M2.98750265,4.05293598 L0.0548254424,0.066338981 C0.410972324,2.33435573 0.97714454,4.15124464 2.98750265,4.05293598 L2.98750265,4.05293598 Z" id="svg_28"></path>
                                </g>
                                <g id="svg_29" transform="translate(2.939535, 19.563827) rotate(-14.978217) translate(-2.939535, -19.563827) translate(1.396592, 17.501402)">
                                    <path d="M2.99582942,4.11867629 C3.41283912,1.45548966 1.7497874,0.626360423 0.00468657622,0.0198448805 C0.294364332,2.15294993 0.876843111,4.22229163 2.99582942,4.11867629 L2.99582942,4.11867629 Z" id="svg_30"></path>
                                    <path d="M2.9708218,4.07162944 L0.0381420413,0.0850302768 C0.394289285,2.35304868 0.960461272,4.16993913 2.9708218,4.07162944 L2.9708218,4.07162944 Z" id="svg_31"></path>
                                </g>
                                <g id="svg_32" transform="translate(5.217265, 14.505523) rotate(45.788598) translate(-5.217265, -14.505523) translate(3.258398, 11.895272)">
                                    <g id="svg_33" transform="translate(1.956370, 2.623033) rotate(17.174550) translate(-1.956370, -2.623033) translate(0.477279, 0.454604)">
                                        <path d="M2.87506537,4.30425428 C3.27481791,1.52589265 1.68058845,0.66090774 0.00770532076,0.0281619127 C0.285396082,2.25351627 0.843770076,4.41235072 2.87506537,4.30425428 L2.87506537,4.30425428 Z" id="svg_34"></path>
                                        <path d="M2.85109339,4.25517586 L0.0397770406,0.0961654028 C0.381185006,2.46226881 0.923927832,4.35773615 2.85109339,4.25517586 L2.85109339,4.25517586 Z" id="svg_35"></path>
                                    </g>
                                </g>
                                <g id="svg_36" transform="translate(2.197080, 16.247325) rotate(-8.158475) translate(-2.197080, -16.247325) translate(0.654133, 14.168793)">
                                    <path d="M2.99787031,4.12541062 C3.41488094,1.46223277 1.75182469,0.633105474 0.00672075406,0.0265916722 C0.296398328,2.15969101 0.878878412,4.22902566 2.99787031,4.12541062 L2.99787031,4.12541062 Z" id="svg_37"></path>
                                    <path d="M2.9728626,4.07836491 L0.0401762673,0.091776878 C0.396324309,2.35978917 0.962496734,4.17667331 2.9728626,4.07836491 L2.9728626,4.07836491 Z" id="svg_38"></path>
                                </g>
                                <g id="svg_39" transform="translate(4.856210, 10.465758) rotate(75.340940) translate(-4.856210, -10.465758) translate(3.326677, 8.387227)">
                                    <path d="M2.99415439,4.13039691 C3.4111658,1.46722016 1.74810725,0.638093688 0.00299882324,0.0315801355 C0.292678574,2.16467807 0.875159343,4.23401191 2.99415439,4.13039691 L2.99415439,4.13039691 Z" id="svg_40"></path>
                                    <path d="M2.96914663,4.08335122 L0.0364543989,0.0967643477 C0.392603105,2.36477618 0.958777821,4.18165958 2.96914663,4.08335122 L2.96914663,4.08335122 Z" id="svg_41"></path>
                                </g>
                                <g id="svg_42" transform="translate(1.953925, 12.410912) rotate(14.217956) translate(-1.953925, -12.410912) translate(0.410984, 10.332377)">
                                    <path d="M3.00066717,4.12500327 C3.41767625,1.46182111 1.75462536,0.632692951 0.00952831819,0.0261781673 C0.299205646,2.15928044 0.881683562,4.22861847 3.00066717,4.12500327 L3.00066717,4.12500327 Z" id="svg_43"></path>
                                    <path d="M2.97565956,4.07795748 L0.042983707,0.091362512 C0.399130424,2.35937896 0.965301574,4.17626604 2.97565956,4.07795748 L2.97565956,4.07795748 Z" id="svg_44"></path>
                                </g>
                                <g id="svg_45" transform="translate(6.227624, 5.970831) rotate(90.670668) translate(-6.227624, -5.970831) translate(4.698102, 3.908403)">
                                    <path d="M2.99363415,4.11142261 C3.4106427,1.44823007 1.74759514,0.619101571 0.00249929295,0.0125851303 C0.292177059,2.14569138 0.874654239,4.2150381 2.99363415,4.11142261 L2.99363415,4.11142261 Z" id="svg_46"></path>
                                    <path d="M2.96862697,4.06437472 L0.0359554444,0.0777696565 C0.392100879,2.34579045 0.958272144,4.16268359 2.96862697,4.06437472 L2.96862697,4.06437472 Z" id="svg_47"></path>
                                </g>
                                <g id="svg_48" transform="translate(2.609519, 7.985343) rotate(34.689090) translate(-2.609519, -7.985343) translate(1.079993, 5.922922)">
                                    <path d="M2.99226817,4.11538063 C3.40927778,1.45220033 1.74622644,0.623072909 0.00112599952,0.0165586598 C0.290803691,2.14965905 0.873282338,4.21899574 2.99226817,4.11538063 L2.99226817,4.11538063 Z" id="svg_49"></path>
                                    <path d="M2.96726053,4.06833488 L0.0345814303,0.0817439137 C0.390728594,2.34975736 0.956900454,4.16664335 2.96726053,4.06833488 L2.96726053,4.06833488 Z" id="svg_50"></path>
                                </g>
                                <g id="svg_51" transform="translate(7.007070, 2.005196) rotate(84.501867) translate(-7.007070, -2.005196) translate(5.464126, -0.057224)">
                                    <path d="M3.01354407,4.10148478 C3.43055407,1.43830488 1.76750114,0.609177434 0.0223990449,0.0026631652 C0.312077817,2.13576362 0.894557018,4.2050999 3.01354407,4.10148478 L3.01354407,4.10148478 Z" id="svg_52"></path>
                                    <path d="M2.98853723,4.05443903 L0.0558553393,0.0678474544 C0.41200201,2.33586197 0.978175241,4.15274751 2.98853723,4.05443903 L2.98853723,4.05443903 Z" id="svg_53"></path>
                                </g>
                                <g id="svg_54" transform="translate(4.091750, 3.627619) rotate(46.404553) translate(-4.091750, -3.627619) translate(2.548806, 1.565199)">
                                    <path d="M3.01195496,4.10859497 C3.42896474,1.44541512 1.76591192,0.616287683 0.0208115985,0.00977342491 C0.310488573,2.14287384 0.892967452,4.21221008 3.01195496,4.10859497 L3.01195496,4.10859497 Z" id="svg_55"></path>
                                    <path d="M2.98694731,4.06154922 L0.0542670425,0.074957713 C0.410414348,2.34297219 0.976585602,4.15985769 2.98694731,4.06154922 L2.98694731,4.06154922 Z" id="svg_56"></path>
                                </g>
                            </g>
                            <g id="svg_57" transform="translate(26.591488, 15.834062) scale(-1, 1) translate(-26.591488, -15.834062) translate(18.523406, 0.033091)">
                                <g id="svg_58" transform="translate(13.810754, 28.942118) rotate(-57.644208) translate(-13.810754, -28.942118) translate(12.267813, 26.879703)">
                                    <path d="M3.01387593,4.10405523 C3.43088336,1.44088251 1.7678358,0.611757291 0.0227376098,0.00524465731 C0.312415732,2.13833937 0.894893629,4.20767006 3.01387593,4.10405523 L3.01387593,4.10405523 Z" id="svg_59"></path>
                                    <path d="M2.98886998,4.05700961 L0.0561946611,0.0704307366 C0.412338092,2.33843717 0.978510027,4.15531781 2.98886998,4.05700961 L2.98886998,4.05700961 Z" id="svg_60"></path>
                                </g>
                                <g id="svg_61" transform="translate(13.890254, 25.152931) rotate(-4.290487) translate(-13.890254, -25.152931) translate(12.347318, 23.074389)">
                                    <path d="M3.01545081,4.13017025 C3.43245854,1.46697921 1.76941305,0.637848297 0.0243221186,0.0313314921 C0.313997672,2.16444087 0.896473695,4.2337858 3.01545081,4.13017025 L3.01545081,4.13017025 Z" id="svg_62"></path>
                                    <path d="M2.99044328,4.08312434 L0.0577773985,0.0965170851 C0.413922957,2.36454009 0.980091434,4.18143326 2.99044328,4.08312434 L2.99044328,4.08312434 Z" id="svg_63"></path>
                                </g>
                                <g id="svg_64" transform="translate(10.485555, 27.501141) rotate(-52.796431) translate(-10.485555, -27.501141) translate(8.942613, 25.438720)">
                                    <path d="M2.99777525,4.10506606 C3.41478638,1.44188578 1.75173387,0.612758207 0.00663392829,0.00624385073 C0.296312342,2.13934462 0.878790824,4.20868119 2.99777525,4.10506606 L2.99777525,4.10506606 Z" id="svg_65"></path>
                                    <path d="M2.97276925,4.0580203 L0.0400909864,0.0714281494 C0.396238049,2.33944299 0.962410553,4.15632879 2.97276925,4.0580203 L2.97276925,4.0580203 Z" id="svg_66"></path>
                                </g>
                                <g id="svg_67" transform="translate(10.510376, 23.155903) rotate(26.589551) translate(-10.510376, -23.155903) translate(8.967434, 21.093483)">
                                    <path d="M3.01322756,4.1115717 C3.430237,1.4483932 1.76718634,0.619266181 0.0220866155,0.0127522307 C0.311763356,2.14585157 0.894241764,4.21518676 3.01322756,4.1115717 L3.01322756,4.1115717 Z" id="svg_68"></path>
                                    <path d="M2.98821993,4.06452597 L0.0555420325,0.0779364857 C0.41168905,2.34594981 0.977859846,4.1628344 2.98821993,4.06452597 L2.98821993,4.06452597 Z" id="svg_69"></path>
                                </g>
                                <g id="svg_70" transform="translate(7.463500, 25.421961) rotate(-36.843340) translate(-7.463500, -25.421961) translate(5.920558, 23.343427)">
                                    <path d="M3.01454594,4.12130233 C3.43155362,1.4581221 1.7685018,0.628994396 0.0234058647,0.0224799416 C0.313080884,2.15558105 0.895559123,4.22491748 3.01454594,4.12130233 L3.01454594,4.12130233 Z" id="svg_71"></path>
                                    <path d="M2.98953668,4.07425657 L0.0568596351,0.0876662165 C0.413006549,2.35567946 0.979178818,4.17256507 2.98953668,4.07425657 L2.98953668,4.07425657 Z" id="svg_72"></path>
                                </g>
                                <g id="svg_73" transform="translate(8.085872, 21.046197) rotate(45.165962) translate(-8.085872, -21.046197) translate(6.542930, 18.983775)">
                                    <path d="M2.99801224,4.09944892 C3.41502155,1.4362672 1.75197141,0.607139179 0.00687223609,0.000624494977 C0.296549717,2.13372642 0.879027943,4.20306411 2.99801224,4.09944892 L2.99801224,4.09944892 Z" id="svg_74"></path>
                                    <path d="M2.97300545,4.05240314 L0.0403284745,0.0658098279 C0.396474548,2.3338249 0.96264683,4.15071172 2.97300545,4.05240314 L2.97300545,4.05240314 Z" id="svg_75"></path>
                                </g>
                                <g id="svg_76" transform="translate(4.904554, 22.724204) rotate(-25.879028) translate(-4.904554, -22.724204) translate(3.361613, 20.661783)">
                                    <path d="M2.99793751,4.110642 C3.41494667,1.44746197 1.7518971,0.618334629 0.00679852141,0.0118204405 C0.296476709,2.14492062 0.878954736,4.2142571 2.99793751,4.110642 L2.99793751,4.110642 Z" id="svg_77"></path>
                                    <path d="M2.97292989,4.06359626 L0.0402539165,0.0770056879 C0.396400701,2.3450189 0.962571126,4.16190472 2.97292989,4.06359626 L2.97292989,4.06359626 Z" id="svg_78"></path>
                                </g>
                                <g id="svg_79" transform="translate(6.156216, 18.535266) rotate(55.854674) translate(-6.156216, -18.535266) translate(4.613274, 16.456728)">
                                    <path d="M3.00196938,4.12490416 C3.41897865,1.46171932 1.75592822,0.632590336 0.0108295726,0.0260749434 C0.300507034,2.15917935 0.88298522,4.22851946 3.00196938,4.12490416 L3.00196938,4.12490416 Z" id="svg_80"></path>
                                    <path d="M2.97696216,4.07785832 L0.0442853793,0.0912603524 C0.400431858,2.35927807 0.966603243,4.17616701 2.97696216,4.07785832 L2.97696216,4.07785832 Z" id="svg_81"></path>
                                </g>
                                <g id="svg_82" transform="translate(2.931572, 19.573385) rotate(-14.978217) translate(-2.931572, -19.573385) translate(1.388628, 17.510960)">
                                    <path d="M2.99584171,4.10826755 C3.41285141,1.44508144 1.74979969,0.615952201 0.0046988661,0.00943662633 C0.29437579,2.14254168 0.876854569,4.21188289 2.99584171,4.10826755 L2.99584171,4.10826755 Z" id="svg_83"></path>
                                    <path d="M2.97083406,4.0612217 L0.0381543044,0.0746220227 C0.394301548,2.34264042 0.960472704,4.15953039 2.97083406,4.0612217 L2.97083406,4.0612217 Z" id="svg_84"></path>
                                </g>
                                <g id="svg_85" transform="translate(5.192061, 14.529367) rotate(45.788598) translate(-5.192061, -14.529367) translate(3.233195, 11.935229)">
                                    <g id="svg_86" transform="translate(1.955882, 2.589843) rotate(17.174550) translate(-1.955882, -2.589843) translate(0.476791, 0.438223)">
                                        <path d="M2.87145821,4.27687414 C3.27121076,1.49851252 1.67698091,0.633525554 0.0040985497,0.000779726842 C0.281788539,2.22613614 0.840162533,4.38497058 2.87145821,4.27687414 L2.87145821,4.27687414 Z" id="svg_87"></path>
                                        <path d="M2.84748626,4.22779368 L0.0361694978,0.0687842591 C0.37757826,2.43488868 0.92032029,4.330354 2.84748626,4.22779368 L2.84748626,4.22779368 Z" id="svg_88"></path>
                                    </g>
                                </g>
                                <g id="svg_89" transform="translate(2.179049, 16.257116) rotate(-8.158475) translate(-2.179049, -16.257116) translate(0.649519, 14.194696)">
                                    <path d="M2.99321238,4.10060636 C3.41022465,1.43742802 1.74716757,0.60830121 0.00206282589,0.00178740843 C0.291742036,2.13488623 0.87422212,4.20422139 2.99321238,4.10060636 L2.99321238,4.10060636 Z" id="svg_90"></path>
                                    <path d="M2.96820631,4.05356064 L0.035519976,0.0669726143 C0.391668018,2.33498439 0.957840443,4.15186904 2.96820631,4.05356064 L2.96820631,4.05356064 Z" id="svg_91"></path>
                                </g>
                                <g id="svg_92" transform="translate(4.833699, 10.474840) rotate(75.340940) translate(-4.833699, -10.474840) translate(3.304167, 8.412422)">
                                    <path d="M2.99133242,4.09927898 C3.40834384,1.43610223 1.74528489,0.606975759 0.000177291622,0.000462207273 C0.289856238,2.13356015 0.872337408,4.20289398 2.99133242,4.09927898 L2.99133242,4.09927898 Z" id="svg_93"></path>
                                    <path d="M2.9663251,4.05223329 L0.0336332967,0.0656464195 C0.389781601,2.33365826 0.955955887,4.15054165 2.9663251,4.05223329 L2.9663251,4.05223329 Z" id="svg_94"></path>
                                </g>
                                <g id="svg_95" transform="translate(1.936736, 12.403389) rotate(14.217956) translate(-1.936736, -12.403389) translate(0.407212, 10.324854)">
                                    <path d="M2.99366147,4.13070625 C3.41067055,1.46752409 1.74762129,0.638395936 0.00252304398,0.0318811522 C0.292201177,2.16498342 0.874679093,4.23432146 2.99366147,4.13070625 L2.99366147,4.13070625 Z" id="svg_96"></path>
                                    <path d="M2.96865385,4.08366046 L0.0359784328,0.0970664958 C0.392125149,2.36508194 0.958295467,4.18196905 2.96865385,4.08366046 L2.96865385,4.08366046 Z" id="svg_97"></path>
                                </g>
                                <g id="svg_98" transform="translate(6.215879, 5.976013) rotate(90.670668) translate(-6.215879, -5.976013) translate(4.672940, 3.913585)">
                                    <path d="M3.00266844,4.11114331 C3.419677,1.44795373 1.75662944,0.618825238 0.0115338049,0.0123087649 C0.301210766,2.14541501 0.883687946,4.21475881 3.00266844,4.11114331 L3.00266844,4.11114331 Z" id="svg_99"></path>
                                    <path d="M2.97766129,4.06409936 L0.0449891514,0.0774952568 C0.401135418,2.34551408 0.967305851,4.16240819 2.97766129,4.06409936 L2.97766129,4.06409936 Z" id="svg_100"></path>
                                </g>
                                <g id="svg_101" transform="translate(2.600081, 7.989300) rotate(34.689090) translate(-2.600081, -7.989300) translate(1.057138, 5.910767)">
                                    <path d="M3.00233823,4.12957263 C3.41934783,1.46639281 1.75629649,0.637265392 0.0111960502,0.0307511431 C0.300874546,2.16385153 0.883353194,4.23318774 3.00233823,4.12957263 L3.00233823,4.12957263 Z" id="svg_102"></path>
                                    <path d="M2.97733139,4.08252688 L0.044652286,0.0959364292 C0.400798618,2.36394987 0.96697131,4.18083538 2.97733139,4.08252688 L2.97733139,4.08252688 Z" id="svg_103"></path>
                                </g>
                                <g id="svg_104" transform="translate(7.006165, 2.006899) rotate(84.501867) translate(-7.006165, -2.006899) translate(5.463221, -0.071634)">
                                    <path d="M3.0095601,4.12990813 C3.42657011,1.46672823 1.76351678,0.637598816 0.0184154844,0.0310845473 C0.308093451,2.16418697 0.890572653,4.23352324 3.0095601,4.12990813 L3.0095601,4.12990813 Z" id="svg_105"></path>
                                    <path d="M2.98455286,4.08286041 L0.0518709738,0.0962708022 C0.408018476,2.36428532 0.974190875,4.18116889 2.98455286,4.08286041 L2.98455286,4.08286041 Z" id="svg_106"></path>
                                </g>
                                <g id="svg_107" transform="translate(4.086824, 3.638354) rotate(46.404553) translate(-4.086824, -3.638354) translate(2.543881, 1.559821)">
                                    <path d="M3.00105537,4.12284891 C3.41806514,1.45966905 1.75501233,0.63054162 0.00991157429,0.0240273621 C0.299589381,2.15712778 0.88206826,4.22646499 3.00105537,4.12284891 L3.00105537,4.12284891 Z" id="svg_108"></path>
                                    <path d="M2.97604771,4.07580316 L0.0433674477,0.0892126491 C0.39951435,2.35722612 0.965686409,4.17411166 2.97604771,4.07580316 L2.97604771,4.07580316 Z" id="svg_109"></path>
                                </g>
                            </g>
                            <path d="M18.0031369,27.8152065 C18.0031369,28.2370208 17.7119546,28.5789688 17.3527631,28.5789688 C16.9935715,28.5789688 16.7023892,28.2370208 16.7023892,27.8152065 C16.7023892,27.3933922 16.9935715,27.0514442 17.3527631,27.0514442 C17.7119546,27.0514442 18.0031369,27.3933922 18.0031369,27.8152065 L18.0031369,27.8152065 Z" id="svg_110"></path>
                        </g>
                    </g>
                </g>
            </g>
            <text id="A" sketch:type="MSTextLayer" transform="translate(12.560201, 10.887462) rotate(1.000000) translate(-12.560201, -10.887462) " font-family="Zapfino" font-size="8.25477707" font-style="italic" font-weight="normal" line-spacing="240" fill="#4A4A4A">
                <tspan x="7.96477449" y="16.8838206">A</tspan>
            </text>
            <text id="L" sketch:type="MSTextLayer" transform="translate(20.782447, 9.168545) rotate(-12.000000) translate(-20.782447, -9.168545) " font-family="Zapfino" font-size="8.11267606" font-style="italic" font-weight="normal" fill="#4A4A4A">
                <tspan x="16.4493041" y="16.0302233">L</tspan>
            </text>
        </g>
    </g>
</svg>