<?xml version="1.0"?><svg width="940" height="720" xmlns="http://www.w3.org/2000/svg">
 <title>olive leaf gold</title>
 <defs>
  <filter id="filter3327">
   <feGaussianBlur id="feGaussianBlur3329" stdDeviation="6.130778"/>
  </filter>
 </defs>
 <metadata id="metadata7">image/svg+xmlImperatores Romani2006.07.25Piotr Michal JaworskiPiotr Michal JaworskiPiotr Michal Jaworskipiomrex (AT-) konin.lm.pl</metadata>
 <g>
  <title>Layer 1</title>
  <g id="layer1">
   <path id="svg_2" fill="#ffc156" fill-rule="evenodd" stroke-width="1.000001px" filter="url(#filter3327)" d="m229.797546,13.194252c-47.174438,19.690018 -92.151154,46.941818 -84.304474,103.697861c60.925323,-3.515076 75.221466,-53.111969 84.304474,-103.697861zm475.916321,0c9.083008,50.585892 23.37915,100.182785 84.304443,103.697861c7.84668,-56.756042 -37.130005,-84.007843 -84.304443,-103.697861zm-596.735901,22.758835c-24.97583,44.60199 -43.5914,93.784615 -2.397888,133.608284c45.777252,-40.357178 26.461395,-88.19474 2.397888,-133.608284zm717.555481,0c-24.063477,45.413544 -43.421509,93.251106 2.355835,133.608284c41.193481,-39.823669 22.620056,-89.006294 -2.355835,-133.608284zm-612.763855,73.745392c-49.017181,14.506714 -96.650024,36.751534 -94.947693,94.022179c60.950317,3.052185 80.481415,-44.705215 94.947693,-94.022179zm507.930115,0c14.466309,49.316963 33.997437,97.074364 94.947754,94.022179c1.702332,-57.270645 -45.930542,-79.515465 -94.947754,-94.022179zm-666.94751,28.395943c-15.399109,48.744263 -23.60141,100.707016 24.82019,131.336609c36.629028,-48.811661 7.963257,-91.75528 -24.82019,-131.336609zm825.964966,0c-32.783447,39.581329 -61.449219,82.524948 -24.82019,131.336609c48.42157,-30.629593 40.219238,-82.592346 24.82019,-131.336609zm-718.607178,64.82692c-43.437958,26.949524 -83.502625,60.988571 -66.720001,115.771469c59.588623,-13.170166 65.806519,-64.384659 66.720001,-115.771469zm611.291382,0c0.913452,51.38681 7.13147,102.601303 66.720093,115.771469c16.782593,-54.782898 -23.282043,-88.821945 -66.720093,-115.771469zm-758.866272,46.190765c2.621002,51.051651 13.126129,102.622696 69.202026,114.383194c17.244659,-58.539551 -24.645905,-88.767029 -69.202026,-114.383194zm906.399109,0c-44.55603,25.616165 -86.404541,55.843643 -69.159912,114.383194c56.075928,-11.760498 66.53894,-63.331543 69.159912,-114.383194zm-763.19931,41.310928c-36.317932,35.973999 -67.764679,78.155151 -39.165375,127.802856c55.139191,-26.151794 49.757141,-77.511292 39.165375,-127.802856zm620.041595,0c-10.591797,50.291565 -15.973877,101.651062 39.165466,127.802856c28.599243,-49.647705 -2.847473,-91.828857 -39.165466,-127.802856zm-775.90387,65.415894c21.85849,46.209656 51.15332,89.855042 107.483948,79.382507c-6.339233,-60.696533 -56.531006,-72.657288 -107.483948,-79.382507zm931.766174,0c-50.952942,6.72522 -101.186768,18.685974 -107.526001,79.382507c56.330627,10.472534 85.667542,-33.172852 107.526001,-79.382507zm-757.351868,25.955994c-31.960144,39.895935 -58.36911,85.374084 -24.273285,131.420715c51.782288,-32.293335 40.553741,-82.672607 24.273285,-131.420715zm582.937561,0c-16.280518,48.748108 -27.551147,99.12738 24.231201,131.420715c34.095825,-46.046631 7.728882,-91.52478 -24.231201,-131.420715zm-542.97287,56.876099c-24.00592,45.13147 -41.539856,94.72644 0.504822,133.65033c44.894104,-41.337341 24.534637,-88.767578 -0.504822,-133.65033zm503.008148,0c-25.039429,44.882751 -45.44104,92.312988 -0.546875,133.65033c42.044678,-38.923889 24.552856,-88.51886 0.546875,-133.65033zm-701.485413,0.925476c27.19101,43.28717 61.461487,83.176514 116.149994,66.088989c-13.50174,-59.514404 -64.758942,-65.461792 -116.149994,-66.088989zm899.962708,0c-51.390991,0.627197 -102.690247,6.574585 -116.192139,66.088989c54.688599,17.087524 89.00116,-22.801819 116.192139,-66.088989zm-656.89328,52.164429c-8.377716,50.427612 -9.1763,102.996948 43.077728,126.498718c29.386444,-53.485413 -5.044586,-91.931213 -43.077728,-126.498718zm413.781708,0c-38.033081,34.567505 -72.464111,73.013306 -43.077637,126.498718c52.254028,-23.50177 51.455444,-76.071106 43.077637,-126.498718zm-561.440704,27.260132c-15.131561,0.158752 -31.056854,2.455994 -46.863861,5.300598c34.886383,37.364014 76.11261,70.03064 126.582916,42.909424c-16.852631,-38.422363 -46.429596,-48.559326 -79.719055,-48.210022zm704.59848,0c-31.438049,0.61499 -59.131165,11.534119 -75.217712,48.210022c50.470215,27.121216 91.696533,-5.54541 126.582886,-42.909424c-17.387695,-3.129028 -34.897583,-5.622742 -51.365173,-5.300598zm-494.468353,39.375732c18.691376,47.578918 44.980133,93.140686 101.888916,86.491943c-2.230225,-60.985962 -51.505737,-76.344788 -101.888916,-86.491943zm288.881622,0c-50.383179,10.147156 -99.700806,25.505981 -101.931,86.491943c56.908783,6.648743 83.239594,-38.913025 101.931,-86.491943zm-411.97287,23.852539c-21.540619,0.457092 -44.42215,8.086548 -66.888275,16.785156c41.35611,30.046753 88.039703,54.272827 132.430359,18.047241c-18.431702,-26.671265 -41.129395,-35.350403 -65.542084,-34.832397zm530.478607,0c-22.676514,0.624329 -43.718994,9.828064 -60.998657,34.832397c44.390625,36.225586 91.074219,11.999512 132.430298,-18.047241c-22.466064,-8.698608 -45.347656,-16.328064 -66.888306,-16.785156c-1.525757,-0.032349 -3.031494,-0.041626 -4.543335,0zm-433.385437,45.728027c-28.572662,0.540649 -55.89502,18.522095 -81.948639,38.239868c48.021667,17.522827 99.579742,28.016418 132.304138,-19.014771c-16.210419,-13.315247 -32.086273,-18.900085 -47.57901,-19.225098c-0.924286,-0.019409 -1.854797,-0.017456 -2.776489,0zm338.059143,0c-15.492676,0.325012 -31.326538,5.909851 -47.536865,19.225098c32.724365,47.031189 84.240356,36.537598 132.262085,19.014771c-26.894165,-20.353821 -55.148071,-38.860352 -84.72522,-38.239868zm-167.641296,16.743103c-9.75824,0 -17.668579,7.910339 -17.66861,17.668579c0,9.758301 7.91037,17.710693 17.66861,17.710693c9.75824,0 17.66861,-7.952393 17.66861,-17.710693c0,-9.75824 -7.910339,-17.668579 -17.66861,-17.668579zm-75.217743,14.681763c-31.225586,0.038208 -59.168304,21.805786 -85.440308,45.433533c49.33078,13.401794 101.609955,19.465576 130.242828,-30.162842c-15.707031,-10.81604 -30.6091,-15.288025 -44.802521,-15.270691zm150.435455,0c-14.193359,-0.017334 -29.053467,4.454651 -44.760406,15.270691c28.632843,49.628418 80.870026,43.564636 130.200714,30.162842c-26.271973,-23.627747 -54.214722,-45.395325 -85.440308,-45.433533z"/>
   <g id="svg_3" transform="matrix(1.34618, 0, 0, 1.34618, -138.356, -200.687)">
    <g id="svg_4" transform="matrix(0.50592, 0, 0, 0.50592, 182.655, 465.192)">
     <g id="svg_5" transform="matrix(0.573143, -0.904671, 1.00078, 0.44482, -415.047, 619.463)">
      <path id="svg_6" fill="#ffc156" fill-rule="evenodd" stroke-width="1.363094px" d="m577.082153,568.325317c15.540466,-82.642487 -46.435547,-108.371552 -111.469238,-127.192596c10.795288,66.193298 32.502197,130.407928 111.469238,127.192596z"/>
      <path id="svg_7" fill="#ffc156" fill-rule="evenodd" stroke-width="1.363094px" d="m576.150208,566.865417l-109.290466,-123.7099c13.272278,70.379883 34.371521,126.760559 109.290466,123.7099z"/>
     </g>
     <g id="svg_8" transform="matrix(1.06794, -0.0801205, 0.240445, 1.06847, -65.9312, -10.494)">
      <path id="svg_9" fill="#ffc156" fill-rule="evenodd" stroke-width="1.363094px" d="m424.818481,328.494659c15.540466,-82.642441 -46.435577,-108.371506 -111.469238,-127.192551c10.795227,66.193283 32.502136,130.407883 111.469238,127.192551z"/>
      <path id="svg_10" fill="#ffc156" fill-rule="evenodd" stroke-width="1.363094px" d="m423.886536,327.03476l-109.290527,-123.709854c13.272339,70.379837 34.371521,126.760513 109.290527,123.709854z"/>
     </g>
     <g id="svg_11" transform="matrix(0.647546, -0.853, 0.959612, 0.527804, -537.823, 514.566)">
      <path id="svg_12" fill="#ffc156" fill-rule="evenodd" stroke-width="1.363094px" d="m574.466675,540.534424c15.540466,-82.642487 -46.435547,-108.371552 -111.469238,-127.192596c10.795288,66.193298 32.502197,130.407928 111.469238,127.192596z"/>
      <path id="svg_13" fill="#ffc156" fill-rule="evenodd" stroke-width="1.363094px" d="m573.53479,539.074463l-109.290527,-123.709869c13.272278,70.379883 34.371521,126.760529 109.290527,123.709869z"/>
     </g>
     <g id="svg_14" transform="matrix(0.957678, 0.479351, -0.34202, 1.04041, 150.487, -161.529)">
      <path id="svg_15" fill="#ffc156" fill-rule="evenodd" stroke-width="1.363094px" d="m250.315887,296.923035c15.540466,-82.642456 -46.435547,-108.371521 -111.469238,-127.192566c10.795258,66.193298 32.502167,130.407898 111.469238,127.192566z"/>
      <path id="svg_16" fill="#ffc156" fill-rule="evenodd" stroke-width="1.363094px" d="m249.383942,295.463135l-109.290527,-123.7099c13.272339,70.379883 34.371552,126.760559 109.290527,123.7099z"/>
     </g>
     <g id="svg_17" transform="matrix(0.857054, -0.64217, 0.777588, 0.771226, -591.364, 267.296)">
      <path id="svg_18" fill="#ffc156" fill-rule="evenodd" stroke-width="1.363094px" d="m548.781372,454.804871c15.540527,-82.642456 -46.435547,-108.371521 -111.469238,-127.192566c10.795227,66.193298 32.502136,130.407898 111.469238,127.192566z"/>
      <path id="svg_19" fill="#ffc156" fill-rule="evenodd" stroke-width="1.363094px" d="m547.849487,453.344971l-109.290588,-123.709869c13.272339,70.379852 34.371521,126.760529 109.290588,123.709869z"/>
     </g>
     <g id="svg_20" transform="matrix(0.755076, 0.759463, -0.655643, 0.877249, 268.126, -190.625)">
      <path id="svg_21" fill="#ffc156" fill-rule="evenodd" stroke-width="1.363094px" d="m139.420975,324.463196c15.540466,-82.642456 -46.435547,-108.37146 -111.469223,-127.192505c10.795288,66.193237 32.502197,130.407837 111.469223,127.192505z"/>
      <path id="svg_22" fill="#ffc156" fill-rule="evenodd" stroke-width="1.363094px" d="m138.489059,323.003357l-109.290543,-123.7099c13.272339,70.379822 34.371582,126.760559 109.290543,123.7099z"/>
     </g>
     <g id="svg_23" transform="matrix(0.963548, -0.467438, 0.616708, 0.905043, -621.137, 68.8432)">
      <path id="svg_24" fill="#ffc156" fill-rule="evenodd" stroke-width="1.363094px" d="m516.776978,403.499207c15.540527,-82.642456 -46.435516,-108.371521 -111.469208,-127.192566c10.795288,66.193298 32.502197,130.407898 111.469208,127.192566z"/>
      <path id="svg_25" fill="#ffc156" fill-rule="evenodd" stroke-width="1.363094px" d="m515.845093,402.039307l-109.290527,-123.7099c13.272308,70.379883 34.371552,126.760559 109.290527,123.7099z"/>
     </g>
     <g id="svg_26" transform="matrix(0.601115, 0.886332, -0.806975, 0.740424, 304.607, -220.139)">
      <path id="svg_27" fill="#ffc156" fill-rule="evenodd" stroke-width="1.363094px" d="m79.26564,355.228333c15.540466,-82.642456 -46.435547,-108.371521 -111.469254,-127.192566c10.795288,66.193298 32.502197,130.407898 111.469254,127.192566z"/>
      <path id="svg_28" fill="#ffc156" fill-rule="evenodd" stroke-width="1.363094px" d="m78.333694,353.768433l-109.290543,-123.709839c13.272339,70.379822 34.371582,126.760498 109.290543,123.709839z"/>
     </g>
     <g id="svg_29" transform="matrix(1.03456, -0.276788, 0.434429, 1.00534, -608.74, -129.315)">
      <path id="svg_30" fill="#ffc156" fill-rule="evenodd" stroke-width="1.363094px" d="m474.64389,360.808411c15.540466,-82.642487 -46.435547,-108.371552 -111.469238,-127.192596c10.795258,66.193298 32.502167,130.407928 111.469238,127.192596z"/>
      <path id="svg_31" fill="#ffc156" fill-rule="evenodd" stroke-width="1.363094px" d="m473.711945,359.34848l-109.290527,-123.709869c13.272339,70.379852 34.371552,126.760559 109.290527,123.709869z"/>
     </g>
     <g id="svg_32" transform="matrix(0.746779, 0.767624, -0.665138, 0.870071, 125.857, -397.645)">
      <g id="svg_33" transform="matrix(0.915872, 0.283064, -0.296023, 1.00037, 202.003, -80.531)">
       <path id="svg_34" fill="#ffc156" fill-rule="evenodd" stroke-width="1.363094px" d="m44.768784,379.030182c15.540466,-82.642456 -46.435547,-108.37146 -111.469238,-127.192505c10.795288,66.193237 32.502197,130.407837 111.469238,127.192505z"/>
       <path id="svg_35" fill="#ffc156" fill-rule="evenodd" stroke-width="1.363094px" d="m43.836868,377.570343l-109.290527,-123.7099c13.272308,70.379822 34.371552,126.760559 109.290527,123.7099z"/>
      </g>
     </g>
     <g id="svg_36" transform="matrix(1.06011, -0.15198, 0.311976, 1.04981, -573.176, -289.857)">
      <path id="svg_37" fill="#ffc156" fill-rule="evenodd" stroke-width="1.363094px" d="m443.719696,339.017761c15.540466,-82.642456 -46.435577,-108.371536 -111.469238,-127.192581c10.795227,66.193314 32.502136,130.407913 111.469238,127.192581z"/>
      <path id="svg_38" fill="#ffc156" fill-rule="evenodd" stroke-width="1.363094px" d="m442.78775,337.557861l-109.290527,-123.709885c13.272339,70.379868 34.371521,126.760544 109.290527,123.709885z"/>
     </g>
     <g id="svg_39" transform="matrix(0.271022, 1.03609, -1.00774, 0.428823, 425.16, -343.1)">
      <path id="svg_40" fill="#ffc156" fill-rule="evenodd" stroke-width="1.363094px" d="m-15.418991,435.172546c15.540466,-82.642456 -46.435547,-108.371521 -111.469254,-127.192566c10.795288,66.193298 32.502182,130.407898 111.469254,127.192566z"/>
      <path id="svg_41" fill="#ffc156" fill-rule="evenodd" stroke-width="1.363094px" d="m-16.350937,433.712646l-109.290543,-123.7099c13.272339,70.379883 34.371567,126.760559 109.290543,123.7099z"/>
     </g>
     <g id="svg_42" transform="matrix(1.03814, 0.263036, -0.111168, 1.08953, -337.728, -516.595)">
      <path id="svg_43" fill="#ffc156" fill-rule="evenodd" stroke-width="1.363094px" d="m323.824341,298.004913c15.540466,-82.642456 -46.435608,-108.371521 -111.469254,-127.192566c10.795258,66.193298 32.502167,130.407898 111.469254,127.192566z"/>
      <path id="svg_44" fill="#ffc156" fill-rule="evenodd" stroke-width="1.363094px" d="m322.892395,296.545013l-109.290543,-123.7099c13.272339,70.379883 34.371552,126.760559 109.290543,123.7099z"/>
     </g>
     <g id="svg_45" transform="matrix(-0.0125355, 1.07087, -1.08526, 0.147144, 574.432, -341.583)">
      <path id="svg_46" fill="#ffc156" fill-rule="evenodd" stroke-width="1.363094px" d="m-70.437614,514.58313c15.540466,-82.642548 -46.435562,-108.371552 -111.469246,-127.192596c10.795288,66.193237 32.502197,130.407928 111.469246,127.192596z"/>
      <path id="svg_47" fill="#ffc156" fill-rule="evenodd" stroke-width="1.363094px" d="m-71.369545,513.123169l-109.29052,-123.709869c13.272308,70.379822 34.371552,126.760529 109.29052,123.709869z"/>
     </g>
     <g id="svg_48" transform="matrix(0.880588, 0.6095, -0.485195, 0.981844, -70.3676, -666.837)">
      <path id="svg_49" fill="#ffc156" fill-rule="evenodd" stroke-width="1.363094px" d="m201.5112,304.706421c15.540466,-82.642471 -46.435547,-108.371536 -111.469238,-127.192581c10.795258,66.193298 32.502167,130.407913 111.469238,127.192581z"/>
      <path id="svg_50" fill="#ffc156" fill-rule="evenodd" stroke-width="1.363094px" d="m200.579254,303.246521l-109.290527,-123.709885c13.272339,70.379852 34.371552,126.760544 109.290527,123.709885z"/>
     </g>
     <g id="svg_51" transform="matrix(0.102611, 1.06602, -1.06316, 0.262912, 572.881, -541.285)">
      <path id="svg_52" fill="#ffc156" fill-rule="evenodd" stroke-width="1.363094px" d="m-50.69603,481.275208c15.540466,-82.642456 -46.435547,-108.371521 -111.469238,-127.192566c10.795288,66.193298 32.502197,130.407898 111.469238,127.192566z"/>
      <path id="svg_53" fill="#ffc156" fill-rule="evenodd" stroke-width="1.363094px" d="m-51.627945,479.815308l-109.290527,-123.7099c13.272308,70.379883 34.371552,126.760559 109.290527,123.7099z"/>
     </g>
     <g id="svg_54" transform="matrix(0.738484, 0.775608, -0.674452, 0.862871, 122.126, -776.622)">
      <path id="svg_55" fill="#ffc156" fill-rule="evenodd" stroke-width="1.363094px" d="m132.244812,327.49585c15.540466,-82.642456 -46.435577,-108.371521 -111.469238,-127.192566c10.795227,66.193298 32.502136,130.407898 111.469238,127.192566z"/>
      <path id="svg_56" fill="#ffc156" fill-rule="evenodd" stroke-width="1.363094px" d="m131.312866,326.03595l-109.290527,-123.7099c13.272339,70.379883 34.371521,126.760559 109.290527,123.7099z"/>
     </g>
    </g>
    <g id="svg_57" transform="matrix(-0.50592, 0, 0, 0.50592, 583.799, 465.192)">
     <g id="svg_58" transform="matrix(0.573143, -0.904671, 1.00078, 0.44482, -415.047, 619.463)">
      <path id="svg_59" fill="#ffc156" fill-rule="evenodd" stroke-width="1.363094px" d="m475.316589,361.355316c15.540405,-82.642456 -46.435547,-108.371521 -111.469238,-127.192566c10.795288,66.193298 32.502197,130.407898 111.469238,127.192566z"/>
      <path id="svg_60" fill="#ffc156" fill-rule="evenodd" stroke-width="1.363094px" d="m474.384705,359.895416l-109.290527,-123.709839c13.272217,70.379822 34.37146,126.760498 109.290527,123.709839z"/>
     </g>
     <g id="svg_61" transform="matrix(1.06794, -0.0801205, 0.240445, 1.06847, -65.9312, -10.494)">
      <path id="svg_62" fill="#ffc156" fill-rule="evenodd" stroke-width="1.363094px" d="m180.375641,310.164825c15.540466,-82.642456 -46.435608,-108.371521 -111.469238,-127.192566c10.795227,66.193298 32.502136,130.407898 111.469238,127.192566z"/>
      <path id="svg_63" fill="#ffc156" fill-rule="evenodd" stroke-width="1.363094px" d="m179.443695,308.704926l-109.290527,-123.709869c13.272339,70.379852 34.371521,126.760529 109.290527,123.709869z"/>
     </g>
     <g id="svg_64" transform="matrix(0.647546, -0.853, 0.959612, 0.527804, -537.823, 514.566)">
      <path id="svg_65" fill="#ffc156" fill-rule="evenodd" stroke-width="1.363094px" d="m453.716461,345.386322c15.540527,-82.642456 -46.435547,-108.371521 -111.469238,-127.192566c10.795288,66.193298 32.502197,130.407898 111.469238,127.192566z"/>
      <path id="svg_66" fill="#ffc156" fill-rule="evenodd" stroke-width="1.363094px" d="m452.784576,343.926422l-109.290527,-123.7099c13.272339,70.379883 34.371582,126.760559 109.290527,123.7099z"/>
     </g>
     <g id="svg_67" transform="matrix(0.957678, 0.479351, -0.34202, 1.04041, 150.487, -161.529)">
      <path id="svg_68" fill="#ffc156" fill-rule="evenodd" stroke-width="1.363094px" d="m12.292328,406.588287c15.540466,-82.642456 -46.435547,-108.371521 -111.469238,-127.192566c10.795227,66.193298 32.502136,130.407898 111.469238,127.192566z"/>
      <path id="svg_69" fill="#ffc156" fill-rule="evenodd" stroke-width="1.363094px" d="m11.360382,405.128387l-109.290527,-123.7099c13.272339,70.379883 34.371521,126.760559 109.290527,123.7099z"/>
     </g>
     <g id="svg_70" transform="matrix(0.857054, -0.64217, 0.777588, 0.771226, -591.364, 267.296)">
      <path id="svg_71" fill="#ffc156" fill-rule="evenodd" stroke-width="1.363094px" d="m372.341492,307.890137c15.540405,-82.642441 -46.435669,-108.371506 -111.469238,-127.192551c10.795166,66.193298 32.502075,130.407883 111.469238,127.192551z"/>
      <path id="svg_72" fill="#ffc156" fill-rule="evenodd" stroke-width="1.363094px" d="m371.409485,306.430237l-109.290527,-123.709824c13.272339,70.379822 34.371582,126.760483 109.290527,123.709824z"/>
     </g>
     <g id="svg_73" transform="matrix(0.755076, 0.759463, -0.655643, 0.877249, 268.126, -190.625)">
      <path id="svg_74" fill="#ffc156" fill-rule="evenodd" stroke-width="1.363094px" d="m-61.274658,498.211945c15.540466,-82.642456 -46.435547,-108.371521 -111.469238,-127.192566c10.795258,66.193298 32.502167,130.407898 111.469238,127.192566z"/>
      <path id="svg_75" fill="#ffc156" fill-rule="evenodd" stroke-width="1.363094px" d="m-62.206573,496.752045l-109.290527,-123.709869c13.272308,70.379852 34.371552,126.760529 109.290527,123.709869z"/>
     </g>
     <g id="svg_76" transform="matrix(0.963548, -0.467438, 0.616708, 0.905043, -621.137, 68.8432)">
      <path id="svg_77" fill="#ffc156" fill-rule="evenodd" stroke-width="1.363094px" d="m309.722595,296.559387c15.540466,-82.642471 -46.435547,-108.371536 -111.469238,-127.192581c10.795288,66.193298 32.502197,130.407913 111.469238,127.192581z"/>
      <path id="svg_78" fill="#ffc156" fill-rule="evenodd" stroke-width="1.363094px" d="m308.790649,295.099487l-109.290527,-123.709885c13.272339,70.379852 34.371521,126.760544 109.290527,123.709885z"/>
     </g>
     <g id="svg_79" transform="matrix(0.601115, 0.886332, -0.806975, 0.740424, 304.607, -220.139)">
      <path id="svg_80" fill="#ffc156" fill-rule="evenodd" stroke-width="1.363094px" d="m-90.127182,558.001709c15.540466,-82.642456 -46.435562,-108.371521 -111.469238,-127.192566c10.795258,66.193298 32.502167,130.407898 111.469238,127.192566z"/>
      <path id="svg_81" fill="#ffc156" fill-rule="evenodd" stroke-width="1.363094px" d="m-91.059113,556.541809l-109.290527,-123.709869c13.272324,70.379852 34.371536,126.760529 109.290527,123.709869z"/>
     </g>
     <g id="svg_82" transform="matrix(1.03456, -0.276788, 0.434429, 1.00534, -608.74, -129.315)">
      <path id="svg_83" fill="#ffc156" fill-rule="evenodd" stroke-width="1.363094px" d="m244.644348,297.485413c15.540466,-82.642471 -46.435547,-108.371536 -111.469238,-127.192581c10.795227,66.193298 32.502136,130.407913 111.469238,127.192581z"/>
      <path id="svg_84" fill="#ffc156" fill-rule="evenodd" stroke-width="1.363094px" d="m243.712402,296.025513l-109.290527,-123.709885c13.272339,70.379852 34.371521,126.760544 109.290527,123.709885z"/>
     </g>
     <g id="svg_85" transform="matrix(0.746779, 0.767624, -0.665138, 0.870071, 125.857, -397.645)">
      <g id="svg_86" transform="matrix(0.915872, 0.283064, -0.296023, 1.00037, 202.003, -80.531)">
       <path id="svg_87" fill="#ffc156" fill-rule="evenodd" stroke-width="1.363094px" d="m-102.371445,596.215759c15.540466,-82.642456 -46.435562,-108.371521 -111.469223,-127.192566c10.795258,66.193298 32.502167,130.407898 111.469223,127.192566z"/>
       <path id="svg_88" fill="#ffc156" fill-rule="evenodd" stroke-width="1.363094px" d="m-103.30336,594.755859l-109.290543,-123.709869c13.272339,70.379852 34.371552,126.760529 109.290543,123.709869z"/>
      </g>
     </g>
     <g id="svg_89" transform="matrix(1.06011, -0.15198, 0.311976, 1.04981, -573.176, -289.857)">
      <path id="svg_90" fill="#ffc156" fill-rule="evenodd" stroke-width="1.363094px" d="m203.546112,304.248047c15.540527,-82.642471 -46.435547,-108.371536 -111.469238,-127.192581c10.795288,66.193298 32.502197,130.407913 111.469238,127.192581z"/>
      <path id="svg_91" fill="#ffc156" fill-rule="evenodd" stroke-width="1.363094px" d="m202.614227,302.788147l-109.290527,-123.709885c13.272339,70.379852 34.371521,126.760544 109.290527,123.709885z"/>
     </g>
     <g id="svg_92" transform="matrix(0.271022, 1.03609, -1.00774, 0.428823, 425.16, -343.1)">
      <path id="svg_93" fill="#ffc156" fill-rule="evenodd" stroke-width="1.363094px" d="m-113.524155,672.206909c15.540466,-82.642456 -46.435562,-108.371521 -111.469238,-127.192566c10.795258,66.193298 32.502167,130.407898 111.469238,127.192566z"/>
      <path id="svg_94" fill="#ffc156" fill-rule="evenodd" stroke-width="1.363094px" d="m-114.456085,670.747009l-109.290527,-123.7099c13.272324,70.379883 34.371536,126.760559 109.290527,123.7099z"/>
     </g>
     <g id="svg_95" transform="matrix(1.03814, 0.263036, -0.111168, 1.08953, -337.728, -516.595)">
      <path id="svg_96" fill="#ffc156" fill-rule="evenodd" stroke-width="1.363094px" d="m74.563263,358.181885c15.540466,-82.642456 -46.435547,-108.371521 -111.469238,-127.192566c10.795288,66.193298 32.502197,130.407898 111.469238,127.192566z"/>
      <path id="svg_97" fill="#ffc156" fill-rule="evenodd" stroke-width="1.363094px" d="m73.631317,356.721985l-109.290527,-123.709869c13.272339,70.379852 34.371521,126.760529 109.290527,123.709869z"/>
     </g>
     <g id="svg_98" transform="matrix(-0.0125355, 1.07087, -1.08526, 0.147144, 574.432, -341.583)">
      <path id="svg_99" fill="#ffc156" fill-rule="evenodd" stroke-width="1.363094px" d="m-104.100937,759.574463c15.540466,-82.642456 -46.435562,-108.37146 -111.469238,-127.192505c10.795258,66.193237 32.502167,130.407837 111.469238,127.192505z"/>
      <path id="svg_100" fill="#ffc156" fill-rule="evenodd" stroke-width="1.363094px" d="m-105.032867,758.114624l-109.290543,-123.709839c13.272339,70.379761 34.371552,126.760498 109.290543,123.709839z"/>
     </g>
     <g id="svg_101" transform="matrix(0.880588, 0.6095, -0.485195, 0.981844, -70.3676, -666.837)">
      <path id="svg_102" fill="#ffc156" fill-rule="evenodd" stroke-width="1.363094px" d="m-23.113525,444.14682c15.540466,-82.642456 -46.435547,-108.371521 -111.469238,-127.192566c10.795288,66.193298 32.502197,130.407898 111.469238,127.192566z"/>
      <path id="svg_103" fill="#ffc156" fill-rule="evenodd" stroke-width="1.363094px" d="m-24.045441,442.68692l-109.290527,-123.709869c13.272308,70.379852 34.371552,126.760529 109.290527,123.709869z"/>
     </g>
     <g id="svg_104" transform="matrix(0.102611, 1.06602, -1.06316, 0.262912, 572.881, -541.285)">
      <path id="svg_105" fill="#ffc156" fill-rule="evenodd" stroke-width="1.363094px" d="m-110.844498,725.157227c15.540466,-82.642456 -46.435562,-108.371582 -111.469223,-127.192627c10.795258,66.193359 32.502167,130.407959 111.469223,127.192627z"/>
      <path id="svg_106" fill="#ffc156" fill-rule="evenodd" stroke-width="1.363094px" d="m-111.776428,723.697266l-109.290527,-123.709839c13.272339,70.379883 34.371552,126.760498 109.290527,123.709839z"/>
     </g>
     <g id="svg_107" transform="matrix(0.738484, 0.775608, -0.674452, 0.862871, 122.126, -776.622)">
      <path id="svg_108" fill="#ffc156" fill-rule="evenodd" stroke-width="1.363094px" d="m-65.161377,504.938171c15.540466,-82.642456 -46.435577,-108.371521 -111.469254,-127.192566c10.795258,66.193298 32.502167,130.407928 111.469254,127.192566z"/>
      <path id="svg_109" fill="#ffc156" fill-rule="evenodd" stroke-width="1.363094px" d="m-66.093323,503.478271l-109.290527,-123.709869c13.272324,70.379852 34.371536,126.760529 109.290527,123.709869z"/>
     </g>
    </g>
    <path id="svg_110" fill="#ffc156" fill-rule="nonzero" stroke-width="0.849474" stroke-linecap="round" stroke-miterlimit="4" stroke-dashoffset="0" d="m463.509369,633.249634a13.13198,13.131983 0 1 1 -26.263977,0a13.13198,13.131983 0 1 1 26.263977,0z"/>
   </g>
  </g>
 </g>
</svg>